# xmcd CD database file
#
# Track frame offsets:
#	150
#	18987
#	36715
#	47772
#	64462
#	86035
#	101732
#	124775
#	138445
#	155547
#	175270
#
# Disc length: 2635 seconds
#
# Revision: 0
# Processed by: cddbd v1.5PL3 Copyright (c) Steve Scherf et al.
# Submitted via: CDex 1.51
#
DISCID=9e0a490b
DTITLE=SHAKE THE FAITH - America The Violent
DYEAR=1994
DGENRE=Hard Rock
TTITLE0=Anti-Heroes
TTITLE1=Suffocated
TTITLE2=So What
TTITLE3=The Pope's On Dope
TTITLE4=Crazy Jane
TTITLE5=My Twisted View (MTV)
TTITLE6=Dysfunctional
TTITLE7=Destroyer
TTITLE8=Public Trust
TTITLE9=Weight Of The World
TTITLE10=Medicine Man
EXTD=YEAR: 1994
EXTT0=
EXTT1=
EXTT2=
EXTT3=
EXTT4=
EXTT5=
EXTT6=
EXTT7=
EXTT8=
EXTT9=
EXTT10=
PLAYORDER=
